<svg id="female1" xmlns="http://www.w3.org/2000/svg" xmlns:xlink="http://www.w3.org/1999/xlink" width="100" height="100" viewBox="0 0 100 100"><defs><clipPath id="clip-path"><path d="M63,71.93c0,4,4.749,5.221,7.124,5.831l22.8,5.86A12.14,12.14,0,0,1,100,90.194V100H0V90.194a12.14,12.14,0,0,1,7.074-6.573l22.811-5.863C32.257,77.149,37,75.966,37,71.93V61H63Z" fill="none"/></clipPath><clipPath id="clip-path-2"><path d="M24.038,45.255C26.48,44.4,31.259,41.72,36.01,33.322c6.788-12,17.15-6.5,20.52-2.633a.859.859,0,0,0,.931.224s8.565-3.666,12.03,3.85c2.545,5.52,3.864,7.086,6.471,8.838V35.7c.008-15.545-9.485-15.665-9.887-15.7s-.747.031-.93-.609c-.82-2.866-10.194-12.46-25.764-6.412S24.038,41.005,24.038,41.005Z" fill="none"/></clipPath></defs><title>Artboard 11</title><rect width="100" height="100" fill="#f5eee5"/><rect x="24" y="41" width="31" height="43" fill="#d98c21"/><rect x="45" y="37" width="31" height="47" fill="#cc751f"/><path d="M63,71.93c0,4,4.749,5.221,7.124,5.831l22.8,5.86A12.14,12.14,0,0,1,100,90.194V100H0V90.194a12.14,12.14,0,0,1,7.074-6.573l22.811-5.863C32.257,77.149,37,75.966,37,71.93V61H63Z" fill="#e6c19c"/><g clip-path="url(#clip-path)"><path d="M50.2,11h.19c3.3.011,8.2.2,11.419,2.031a17.056,17.056,0,0,1,8.5,12.132c2.429,13.713-2.1,35.358-6.314,42.4-4.036,6.74-9.82,9.218-13.507,9.419L50.4,77l-.2,0L50,77l-.09-.014c-3.687-.2-9.47-2.679-13.506-9.419-4.218-7.045-8.744-28.69-6.314-42.4a17.053,17.053,0,0,1,8.5-12.132C41.81,11.2,46.71,11.012,50.008,11h.19Z" fill="#d4b08c"/><path d="M0,58H100v42H0ZM50,89c12.056.034,20.811-14.061,20.811-14.061S60.946,59,50,59,29.189,74.938,29.189,74.938,37.944,88.965,50,89Z" fill="#6b363e"/></g><path d="M49.992,16C69.05,16.045,70.7,29.8,70.809,31.057,71.87,43,67.8,59.108,63.985,64.71c-4.036,5.924-9.82,8.1-13.507,8.278a2.64,2.64,0,0,1-.288.01l-.2,0a18.278,18.278,0,0,1-13.6-8.29c-3.829-5.619-7.912-21.812-6.815-33.765C29.693,29.73,30.934,15.955,49.992,16Z" fill="#f2cea5"/><path d="M45.819,61c-.247,0-.4.388-.274.7A5.07,5.07,0,0,0,49.77,65.14a5.519,5.519,0,0,0,5.173-3.4c.145-.3,0-.72-.261-.721Z" fill="#a3705f"/><circle cx="59" cy="45" r="2" fill="#262626"/><circle cx="41" cy="45" r="2" fill="#262626"/><path d="M45.939,42.24A6.763,6.763,0,0,0,40.374,40c-3.027.027-4.277.97-4.29.98l-1.268-1.546c.171-.143,1.783-1.4,5.54-1.434a8.7,8.7,0,0,1,7.156,3.005Z" fill="#cc9872"/><path d="M53.031,55.4a13.075,13.075,0,0,1-2.256-10.89C51.62,40.368,54.751,38,59.374,38h.119c3.757.034,5.368,1.291,5.54,1.434L63.75,40.968l.642-.767-.628.778c-.012-.009-1.261-.952-4.288-.979-2.125-.023-5.861.595-6.742,4.911a11.111,11.111,0,0,0,1.877,9.266Z" fill="#bb8660"/><path d="M24.038,45.255C26.48,44.4,31.259,41.72,36.01,33.322c6.788-12,17.15-6.5,20.52-2.633a.859.859,0,0,0,.931.224s8.565-3.666,12.03,3.85c2.545,5.52,3.864,7.086,6.471,8.838V35.7c.008-15.545-9.485-15.665-9.887-15.7s-.747.031-.93-.609c-.82-2.866-10.194-12.46-25.764-6.412S24.038,41.005,24.038,41.005Z" fill="#e6a422"/><g clip-path="url(#clip-path-2)"><path d="M56.837,31.59s2.994-7.538,9.029-12.067,11.171,7.356,11.171,7.356l.257,19.556Z" fill="#d98c21"/></g></svg>