<svg id="girl" xmlns="http://www.w3.org/2000/svg" xmlns:xlink="http://www.w3.org/1999/xlink" width="100" height="100" viewBox="0 0 100 100"><defs><clipPath id="clip-path"><path d="M63,71.93c0,4,4.749,5.221,7.124,5.831l22.8,5.86A12.14,12.14,0,0,1,100,90.194V100H0V90.194a12.14,12.14,0,0,1,7.074-6.573l22.811-5.863C32.257,77.149,37,75.966,37,71.93V61H63Z" fill="none"/></clipPath></defs><title>Artboard 13</title><rect width="100" height="100" fill="#f5eee5"/><path d="M63,71.93c0,4,4.749,5.221,7.124,5.831l22.8,5.86A12.14,12.14,0,0,1,100,90.194V100H0V90.194a12.14,12.14,0,0,1,7.074-6.573l22.811-5.863C32.257,77.149,37,75.966,37,71.93V61H63Z" fill="#87613e"/><g clip-path="url(#clip-path)"><path d="M50.2,13h.19c3.3.011,8.2.2,11.419,2.031a17.056,17.056,0,0,1,8.5,12.132c2.429,13.713-2.1,35.358-6.314,42.4-4.036,6.74-9.82,9.218-13.507,9.419L50.4,79l-.2,0L50,79l-.09-.014c-3.687-.2-9.47-2.679-13.506-9.419-4.218-7.045-8.744-28.69-6.314-42.4a17.053,17.053,0,0,1,8.5-12.132C41.81,13.2,46.71,13.012,50.008,13h.19Z" fill="#724f33"/><path d="M100,58v42H0V58ZM50,92c13.529-.186,21-15,21-15S61.046,60,50,60,29,77,29,77,36.471,92.186,50,92Z" fill="#d94caa"/><path d="M50,55C36.88,55,25.06,75.19,25.06,75.19S33.94,93.22,50,93,74.94,75.19,74.94,75.19,63.12,55,50,55Zm0,34c-12.06-.03-20.81-14.06-20.81-14.06S39.05,59,50,59,70.81,74.94,70.81,74.94,62.06,89.03,50,89Z" fill="#b94e85"/></g><path d="M66.22,25.541S66.091,17.9,73.571,17.9,85,23.887,85,31.859s-9.089,13.093-9.977,18.568A11.236,11.236,0,0,0,76.962,59.2,8.474,8.474,0,0,1,66.59,54.043C63.346,46.6,66.22,25.541,66.22,25.541Z" fill="#352a2d"/><path d="M72.193,23.277h0a5,5,0,1,0-1.47,6.916A5,5,0,0,0,72.193,23.277Z" fill="#b33e82"/><path d="M32.78,25.541s.129-7.638-7.351-7.638S14,23.887,14,31.859s9.089,13.093,9.977,18.568A11.236,11.236,0,0,1,22.038,59.2,8.474,8.474,0,0,0,32.41,54.043C35.654,46.6,32.78,25.541,32.78,25.541Z" fill="#352a2d"/><path d="M26.807,23.277h0a5,5,0,1,1,1.47,6.916A5,5,0,0,1,26.807,23.277Z" fill="#d94caa"/><path d="M49.992,22C69.05,22.045,70.7,34.8,70.809,36.057,71.87,48,67.8,61.108,63.985,66.71c-4.036,5.924-9.82,8.1-13.507,8.278a2.64,2.64,0,0,1-.288.01l-.2,0a18.278,18.278,0,0,1-13.6-8.29c-3.829-5.619-7.912-18.812-6.815-30.765C29.693,34.73,30.934,21.955,49.992,22Z" fill="#a67c52"/><path d="M50.043,64.011A10.08,10.08,0,0,1,45.335,63c-.259,0-.42.388-.287.7A5.61,5.61,0,0,0,50.012,67a5.749,5.749,0,0,0,4.929-3.258c.152-.3-.006-.72-.275-.721A9.664,9.664,0,0,1,50.043,64.011Z" fill="#262626"/><circle cx="59" cy="49" r="2" fill="#262626"/><circle cx="41" cy="49" r="2" fill="#262626"/><path d="M36.283,46.892,34.57,45.858A5.933,5.933,0,0,1,39.727,43a9.887,9.887,0,0,1,6.027,2.018l-1.232,1.576A7.664,7.664,0,0,0,39.812,45h-.068A3.956,3.956,0,0,0,36.283,46.892Z" fill="#724f33"/><path d="M51.4,58.205c-1.459-1.085-2.861-3.413-1.254-8.346A9.65,9.65,0,0,1,59.4,43h.09a5.93,5.93,0,0,1,5.155,2.858l-1.712,1.034A3.954,3.954,0,0,0,59.476,45a7.583,7.583,0,0,0-7.425,5.478c-.994,3.053-.811,5.113.546,6.122Z" fill="#724f33"/><path d="M29.51,44.057s9.562-3.98,14.277-10.651c.928.984,2.033,4.38,2.033,6.671,6.074-.981,9.884-4.58,14.59-8.531,0,5.608,9.076,10.639,10.505,12.493A52.713,52.713,0,0,0,72,34.39c0-4.99-1.8-9.8-5.914-10.681C64.339,18.58,56.467,15,49.97,15,37.8,15,28,23.692,28,34.4A38.3,38.3,0,0,0,29.51,44.057Z" fill="#4c3b3e"/></svg>